<svg width="219" height="60" viewBox="0 0 219 60" fill="none" xmlns="http://www.w3.org/2000/svg">
<path d="M1.38281 47.0413L7.3125 12.9163L17.3203 12.9397C20.8047 12.9397 23.4141 13.721 25.1484 15.2835C26.8828 16.846 27.6406 19.0257 27.4219 21.8225C27.1406 25.0882 25.0859 27.5491 21.2578 29.2053C22.7891 29.7991 23.9297 30.8147 24.6797 32.2522C25.4453 33.6897 25.7578 35.2757 25.6172 37.01C25.3828 40.0882 24.1484 42.5335 21.9141 44.346C19.6797 46.1428 16.7891 47.0413 13.2422 47.0413H1.38281ZM8.55469 31.0803L6.42188 43.3616L13.3828 43.385C15.5078 43.385 17.2891 42.8147 18.7266 41.6741C20.1641 40.5335 21 38.9944 21.2344 37.0569C21.4531 35.2132 21.1328 33.7757 20.2734 32.7444C19.4141 31.7132 18.0625 31.1663 16.2188 31.1038L8.55469 31.0803ZM9.1875 27.471L15.5391 27.4944C17.5234 27.4944 19.1953 26.9866 20.5547 25.971C21.9297 24.9553 22.7344 23.5569 22.9688 21.7757C23.1719 20.1194 22.8438 18.8694 21.9844 18.0257C21.1406 17.1819 19.7344 16.721 17.7656 16.6428L11.0625 16.6194L9.1875 27.471ZM34.5703 47.0413H30.3516L34.7578 21.6819H38.9766L34.5703 47.0413ZM38.0625 12.4241C38.7812 12.3928 39.375 12.6116 39.8438 13.0803C40.3281 13.5335 40.5703 14.135 40.5703 14.885C40.5547 15.6194 40.3125 16.221 39.8438 16.6897C39.3906 17.1585 38.7969 17.4085 38.0625 17.4397C37.3281 17.471 36.7266 17.26 36.2578 16.8069C35.7891 16.3538 35.5625 15.76 35.5781 15.0257C35.5938 14.2913 35.8281 13.6819 36.2812 13.1975C36.7344 12.7132 37.3281 12.4553 38.0625 12.4241ZM53.6484 12.9163L59.625 40.7132L75.2812 12.9163H81.0703L75.1406 47.0413H70.7578L73.1016 33.5413L75.8906 19.8069L60.4219 47.0413H57.0469L50.9531 19.2678L48.8438 33.9866L46.5703 47.0413H42.1641L48.0938 12.9163H53.6484ZM93.3516 47.51C90.1953 47.4475 87.7266 46.2835 85.9453 44.0178C84.1641 41.7522 83.4141 38.8538 83.6953 35.3225L83.8125 34.3147C84.0781 31.7991 84.8203 29.5022 86.0391 27.4241C87.2734 25.346 88.7734 23.7835 90.5391 22.7366C92.3047 21.6741 94.2109 21.1663 96.2578 21.2132C98.8672 21.2757 100.914 22.1428 102.398 23.8147C103.883 25.4866 104.695 27.7522 104.836 30.6116C104.883 31.6272 104.852 32.6428 104.742 33.6585L104.484 35.6038H87.9141C87.6328 37.9007 88.0078 39.8538 89.0391 41.4632C90.0859 43.0725 91.6406 43.9085 93.7031 43.971C96.2031 44.0335 98.5156 42.9085 100.641 40.596L103.078 42.6585C102.016 44.1897 100.641 45.3928 98.9531 46.2678C97.2812 47.1272 95.4141 47.5413 93.3516 47.51ZM96.0469 24.7522C94.2969 24.7053 92.7656 25.2991 91.4531 26.5335C90.1562 27.7678 89.125 29.6038 88.3594 32.0413L100.688 32.0647L100.781 31.6897C101.031 29.721 100.711 28.0882 99.8203 26.7913C98.9453 25.4788 97.6875 24.7991 96.0469 24.7522ZM118.477 15.5413L117.398 21.6819H122.016L121.43 25.0335H116.836L114.188 40.8069C114.141 41.2132 114.133 41.5882 114.164 41.9319C114.273 43.1507 114.938 43.76 116.156 43.76C116.672 43.76 117.359 43.6819 118.219 43.5257L117.891 47.0647C116.875 47.346 115.844 47.4866 114.797 47.4866C113.109 47.4553 111.844 46.8382 111 45.635C110.156 44.4163 109.828 42.7835 110.016 40.7366L112.594 25.0335H108.117L108.703 21.6819H113.18L114.258 15.5413H118.477ZM138.516 25.5491L136.523 25.3382C133.805 25.3382 131.664 26.5647 130.102 29.0178L126.984 47.0413H122.742L127.148 21.6819L131.25 21.6585L130.617 24.6116C132.414 22.2522 134.531 21.1038 136.969 21.1663C137.484 21.1663 138.156 21.2835 138.984 21.5178L138.516 25.5491ZM143.32 47.0413H139.102L143.508 21.6819H147.727L143.32 47.0413ZM146.812 12.4241C147.531 12.3928 148.125 12.6116 148.594 13.0803C149.078 13.5335 149.32 14.135 149.32 14.885C149.305 15.6194 149.062 16.221 148.594 16.6897C148.141 17.1585 147.547 17.4085 146.812 17.4397C146.078 17.471 145.477 17.26 145.008 16.8069C144.539 16.3538 144.312 15.76 144.328 15.0257C144.344 14.2913 144.578 13.6819 145.031 13.1975C145.484 12.7132 146.078 12.4553 146.812 12.4241ZM159.352 35.346L156.023 38.3225L154.523 47.0413H150.281L156.539 11.0413H160.781L157.031 32.5569L159.633 29.9319L168.633 21.6819H174.141L162.492 32.4866L170.508 47.0413H165.867L159.352 35.346Z" fill="white"/>
<path d="M1.38281 47.0413L0.397576 46.8701L0.194064 48.0413H1.38281V47.0413ZM7.3125 12.9163L7.31484 11.9163L6.47162 11.9143L6.32726 12.7451L7.3125 12.9163ZM17.3203 12.9397L17.318 13.9397H17.3203V12.9397ZM27.4219 21.8225L28.4182 21.9083L28.4188 21.9005L27.4219 21.8225ZM21.2578 29.2053L20.8607 28.2876L18.6224 29.256L20.8963 30.1377L21.2578 29.2053ZM24.6797 32.2522L23.7931 32.7148L23.7971 32.7223L24.6797 32.2522ZM25.6172 37.01L24.6204 36.9292L24.6201 36.9341L25.6172 37.01ZM21.9141 44.346L22.5408 45.1253L22.544 45.1226L21.9141 44.346ZM8.55469 31.0803L8.55775 30.0804L7.71383 30.0778L7.56943 30.9092L8.55469 31.0803ZM6.42188 43.3616L5.43662 43.1905L5.23394 44.3576L6.41851 44.3616L6.42188 43.3616ZM13.3828 43.385L13.3794 44.385H13.3828V43.385ZM21.2344 37.0569L22.2271 37.177L22.2274 37.1747L21.2344 37.0569ZM16.2188 31.1038L16.2526 30.1044L16.2372 30.1038L16.2218 30.1038L16.2188 31.1038ZM9.1875 27.471L8.2021 27.3007L8.00065 28.4666L9.18381 28.471L9.1875 27.471ZM15.5391 27.4944L15.5354 28.4944H15.5391V27.4944ZM20.5547 25.971L19.9605 25.1666L19.9562 25.1699L20.5547 25.971ZM22.9688 21.7757L23.9602 21.9061L23.9613 21.8974L22.9688 21.7757ZM21.9844 18.0257L21.2772 18.7328L21.2838 18.7392L21.9844 18.0257ZM17.7656 16.6428L17.8053 15.6436L17.7872 15.6429L17.7691 15.6429L17.7656 16.6428ZM11.0625 16.6194L11.066 15.6194L10.221 15.6165L10.0771 16.4491L11.0625 16.6194ZM2.36805 47.2125L8.29774 13.0875L6.32726 12.7451L0.397576 46.8701L2.36805 47.2125ZM7.31016 13.9163L17.318 13.9397L17.3227 11.9397L7.31484 11.9163L7.31016 13.9163ZM17.3203 13.9397C20.6762 13.9397 23.0008 14.6946 24.4791 16.0264L25.8178 14.5405C23.8273 12.7473 20.9331 11.9397 17.3203 11.9397V13.9397ZM24.4791 16.0264C25.9352 17.3382 26.6249 19.1875 26.4249 21.7446L28.4188 21.9005C28.6563 18.8639 27.8305 16.3537 25.8178 14.5405L24.4791 16.0264ZM26.4256 21.7367C26.1848 24.532 24.4592 26.7307 20.8607 28.2876L21.6549 30.1231C25.7127 28.3675 28.0964 25.6443 28.4182 21.9083L26.4256 21.7367ZM20.8963 30.1377C22.2045 30.645 23.1569 31.4954 23.7931 32.7148L25.5663 31.7897C24.7025 30.134 23.3736 28.9532 21.6193 28.273L20.8963 30.1377ZM23.7971 32.7223C24.4665 33.9792 24.7467 35.372 24.6205 36.9292L26.6139 37.0909C26.7689 35.1794 26.4241 33.4003 25.5623 31.7821L23.7971 32.7223ZM24.6201 36.9341C24.4049 39.7605 23.2882 41.9437 21.2841 43.5694L22.544 45.1226C25.0087 43.1233 26.3608 40.4159 26.6143 37.086L24.6201 36.9341ZM21.2874 43.5667C19.2695 45.1894 16.6166 46.0413 13.2422 46.0413V48.0413C16.9615 48.0413 20.0898 47.0963 22.5407 45.1252L21.2874 43.5667ZM13.2422 46.0413H1.38281V48.0413H13.2422V46.0413ZM7.56943 30.9092L5.43662 43.1905L7.40713 43.5327L9.53994 31.2515L7.56943 30.9092ZM6.41851 44.3616L13.3794 44.385L13.3862 42.385L6.42524 42.3616L6.41851 44.3616ZM13.3828 44.385C15.6962 44.385 17.7066 43.7599 19.3481 42.4575L18.105 40.8907C16.8715 41.8695 15.3194 42.385 13.3828 42.385V44.385ZM19.3481 42.4575C21.0059 41.1421 21.9634 39.3575 22.2271 37.177L20.2416 36.9368C20.0366 38.6314 19.3222 39.9249 18.105 40.8907L19.3481 42.4575ZM22.2274 37.1747C22.4658 35.1656 22.1359 33.4173 21.0417 32.1042L19.5052 33.3846C20.1297 34.134 20.4405 35.2607 20.2413 36.9391L22.2274 37.1747ZM21.0417 32.1042C19.9392 30.7813 18.2702 30.1728 16.2526 30.1044L16.1849 32.1032C17.8548 32.1598 18.8889 32.6451 19.5052 33.3846L21.0417 32.1042ZM16.2218 30.1038L8.55775 30.0804L8.55163 32.0803L16.2157 32.1038L16.2218 30.1038ZM9.18381 28.471L15.5354 28.4944L15.5428 26.4944L9.19119 26.471L9.18381 28.471ZM15.5391 28.4944C17.7013 28.4944 19.5929 27.9378 21.1532 26.7721L19.9562 25.1699C18.7977 26.0354 17.3456 26.4944 15.5391 26.4944V28.4944ZM21.1488 26.7753C22.7544 25.5894 23.6924 23.9413 23.9602 21.9061L21.9773 21.6452C21.7763 23.1726 21.1049 24.3213 19.9606 25.1666L21.1488 26.7753ZM23.9613 21.8974C24.1868 20.0592 23.8438 18.4498 22.685 17.3121L21.2838 18.7392C21.8437 19.289 22.157 20.1796 21.9762 21.6539L23.9613 21.8974ZM22.6915 17.3186C21.5849 16.212 19.8717 15.7256 17.8053 15.6436L17.726 17.6421C19.597 17.7163 20.6963 18.1518 21.2773 18.7328L22.6915 17.3186ZM17.7691 15.6429L11.066 15.6194L11.059 17.6194L17.7621 17.6428L17.7691 15.6429ZM10.0771 16.4491L8.2021 27.3007L10.1729 27.6412L12.0479 16.7897L10.0771 16.4491ZM34.5703 47.0413V48.0413H35.4115L35.5556 47.2125L34.5703 47.0413ZM30.3516 47.0413L29.3663 46.8701L29.1628 48.0413H30.3516V47.0413ZM34.7578 21.6819V20.6819H33.9166L33.7726 21.5107L34.7578 21.6819ZM38.9766 21.6819L39.9618 21.8531L40.1653 20.6819H38.9766V21.6819ZM38.0625 12.4241L38.105 13.4232L38.1059 13.4232L38.0625 12.4241ZM39.8438 13.0803L39.1366 13.7875L39.1484 13.7992L39.1606 13.8106L39.8438 13.0803ZM40.5703 14.885L41.5701 14.9063L41.5703 14.8957V14.885H40.5703ZM39.8438 16.6897L39.1366 15.9826L39.1307 15.9886L39.1248 15.9947L39.8438 16.6897ZM34.5703 46.0413H30.3516V48.0413H34.5703V46.0413ZM31.3368 47.2125L35.7431 21.8531L33.7726 21.5107L29.3663 46.8701L31.3368 47.2125ZM34.7578 22.6819H38.9766V20.6819H34.7578V22.6819ZM37.9913 21.5107L33.5851 46.8701L35.5556 47.2125L39.9618 21.8531L37.9913 21.5107ZM38.1059 13.4232C38.5713 13.4029 38.8842 13.5351 39.1366 13.7875L40.5509 12.3732C39.8658 11.6881 38.9912 11.3828 38.0191 11.425L38.1059 13.4232ZM39.1606 13.8106C39.4155 14.049 39.5703 14.372 39.5703 14.885H41.5703C41.5703 13.8981 41.2408 13.0179 40.5269 12.3501L39.1606 13.8106ZM39.5705 14.8638C39.5598 15.3707 39.4027 15.7166 39.1366 15.9826L40.5509 17.3968C41.2223 16.7254 41.5496 15.8681 41.5701 14.9063L39.5705 14.8638ZM39.1248 15.9947C38.873 16.2552 38.5336 16.4188 38.02 16.4406L38.105 18.4388C39.0602 18.3982 39.9083 18.0618 40.5627 17.3847L39.1248 15.9947ZM38.02 16.4406C37.5211 16.4619 37.1985 16.3254 36.9528 16.0879L35.5628 17.5259C36.2546 18.1947 37.1352 18.4801 38.105 18.4388L38.02 16.4406ZM36.9528 16.0879C36.7107 15.8539 36.5674 15.5418 36.5779 15.0469L34.5784 15.0044C34.5576 15.9782 34.8674 16.8537 35.5628 17.5259L36.9528 16.0879ZM36.5779 15.0469C36.5889 14.5303 36.7452 14.1654 37.0115 13.8807L35.551 12.5144C34.911 13.1985 34.5986 14.0523 34.5784 15.0044L36.5779 15.0469ZM37.0115 13.8807C37.2655 13.6092 37.6015 13.4446 38.105 13.4232L38.02 11.425C37.0548 11.4661 36.2032 11.8172 35.551 12.5144L37.0115 13.8807ZM53.6484 12.9163L54.6261 12.7061L54.4563 11.9163H53.6484V12.9163ZM59.625 40.7132L58.6473 40.9234L59.2018 43.5022L60.4963 41.2039L59.625 40.7132ZM75.2812 12.9163V11.9163H74.6968L74.4099 12.4255L75.2812 12.9163ZM81.0703 12.9163L82.0555 13.0875L82.2591 11.9163H81.0703V12.9163ZM75.1406 47.0413V48.0413H75.9818L76.1259 47.2125L75.1406 47.0413ZM70.7578 47.0413L69.7726 46.8702L69.5692 48.0413H70.7578V47.0413ZM73.1016 33.5413L72.1216 33.3423L72.1187 33.3562L72.1163 33.3702L73.1016 33.5413ZM75.8906 19.8069L76.8706 20.0059L75.0211 19.313L75.8906 19.8069ZM60.4219 47.0413V48.0413H61.0039L61.2914 47.5352L60.4219 47.0413ZM57.0469 47.0413L56.0701 47.2556L56.2425 48.0413H57.0469V47.0413ZM50.9531 19.2678L51.9299 19.0535L49.9632 19.126L50.9531 19.2678ZM48.8438 33.9866L49.8289 34.1582L49.8315 34.1433L49.8336 34.1285L48.8438 33.9866ZM46.5703 47.0413V48.0413H47.4112L47.5555 47.2129L46.5703 47.0413ZM42.1641 47.0413L41.1788 46.8701L40.9753 48.0413H42.1641V47.0413ZM48.0938 12.9163V11.9163H47.2525L47.1085 12.7451L48.0938 12.9163ZM52.6708 13.1265L58.6473 40.9234L60.6027 40.503L54.6261 12.7061L52.6708 13.1265ZM60.4963 41.2039L76.1526 13.407L74.4099 12.4255L58.7537 40.2224L60.4963 41.2039ZM75.2812 13.9163H81.0703V11.9163H75.2812V13.9163ZM80.0851 12.7451L74.1554 46.8701L76.1259 47.2125L82.0555 13.0875L80.0851 12.7451ZM75.1406 46.0413H70.7578V48.0413H75.1406V46.0413ZM71.7431 47.2123L74.0868 33.7123L72.1163 33.3702L69.7726 46.8702L71.7431 47.2123ZM74.0816 33.7403L76.8706 20.0059L74.9106 19.6079L72.1216 33.3423L74.0816 33.7403ZM75.0211 19.313L59.5523 46.5474L61.2914 47.5352L76.7602 20.3008L75.0211 19.313ZM60.4219 46.0413H57.0469V48.0413H60.4219V46.0413ZM58.0236 46.827L51.9299 19.0535L49.9764 19.4822L56.0701 47.2556L58.0236 46.827ZM49.9632 19.126L47.8539 33.8447L49.8336 34.1285L51.943 19.4097L49.9632 19.126ZM47.8586 33.815L45.5851 46.8697L47.5555 47.2129L49.8289 34.1582L47.8586 33.815ZM46.5703 46.0413H42.1641V48.0413H46.5703V46.0413ZM43.1493 47.2125L49.079 13.0875L47.1085 12.7451L41.1788 46.8701L43.1493 47.2125ZM48.0938 13.9163H53.6484V11.9163H48.0938V13.9163ZM93.3516 47.51L93.3318 48.5099L93.3364 48.5099L93.3516 47.51ZM83.6953 35.3225L82.702 35.207L82.6999 35.2251L82.6985 35.2431L83.6953 35.3225ZM83.8125 34.3147L84.8059 34.4302L84.807 34.4197L83.8125 34.3147ZM86.0391 27.4241L85.1793 26.9134L85.1765 26.9182L86.0391 27.4241ZM90.5391 22.7366L91.0491 23.5968L91.0547 23.5934L90.5391 22.7366ZM96.2578 21.2132L96.2818 20.2134L96.2807 20.2134L96.2578 21.2132ZM104.836 30.6116L105.835 30.5655L105.835 30.5625L104.836 30.6116ZM104.742 33.6585L105.734 33.7899L105.735 33.7777L105.736 33.7655L104.742 33.6585ZM104.484 35.6038V36.6038H105.361L105.476 35.7352L104.484 35.6038ZM87.9141 35.6038V34.6038H87.029L86.9215 35.4822L87.9141 35.6038ZM89.0391 41.4632L88.1971 42.0027L88.2008 42.0084L89.0391 41.4632ZM93.7031 43.971L93.6728 44.9705L93.6781 44.9707L93.7031 43.971ZM100.641 40.596L101.287 39.8326L100.554 39.2125L99.9043 39.9193L100.641 40.596ZM103.078 42.6585L103.9 43.2286L104.418 42.482L103.724 41.8951L103.078 42.6585ZM98.9531 46.2678L99.4103 47.1572L99.4134 47.1556L98.9531 46.2678ZM96.0469 24.7522L96.0754 23.7526L96.0737 23.7526L96.0469 24.7522ZM91.4531 26.5335L90.768 25.805L90.7637 25.8091L91.4531 26.5335ZM88.3594 32.0413L87.4053 31.7416L86.9979 33.0387L88.3575 33.0413L88.3594 32.0413ZM100.688 32.0647L100.686 33.0647L101.468 33.0662L101.658 32.3073L100.688 32.0647ZM100.781 31.6897L101.751 31.9323L101.766 31.8746L101.773 31.8157L100.781 31.6897ZM99.8203 26.7913L98.9882 27.346L98.996 27.3574L99.8203 26.7913ZM93.3714 46.5102C90.4823 46.453 88.3082 45.4053 86.7314 43.3998L85.1592 44.6359C87.1449 47.1617 89.9083 48.442 93.3318 48.5098L93.3714 46.5102ZM86.7314 43.3998C85.1394 41.3748 84.4261 38.7428 84.6922 35.4019L82.6985 35.2431C82.4021 38.9648 83.1888 42.1297 85.1592 44.6359L86.7314 43.3998ZM84.6886 35.438L84.8058 34.4302L82.8192 34.1992L82.702 35.207L84.6886 35.438ZM84.807 34.4197C85.0584 32.0384 85.7585 29.8793 86.9017 27.93L85.1765 26.9182C83.8821 29.1252 83.0978 31.5598 82.818 34.2097L84.807 34.4197ZM86.8988 27.9348C88.0629 25.975 89.4511 24.5443 91.0491 23.5968L90.0291 21.8764C88.0958 23.0227 86.484 24.717 85.1793 26.9134L86.8988 27.9348ZM91.0547 23.5934C92.6591 22.6279 94.3788 22.1704 96.2349 22.2129L96.2807 20.2134C94.0431 20.1622 91.9503 20.7203 90.0235 21.8798L91.0547 23.5934ZM96.2339 22.2129C98.6165 22.2699 100.382 23.0494 101.651 24.4787L103.146 23.1508C101.446 21.2363 99.1178 20.2814 96.2818 20.2134L96.2339 22.2129ZM101.651 24.4787C102.946 25.9373 103.705 27.9641 103.837 30.6607L105.835 30.5625C105.686 27.5404 104.82 25.0359 103.146 23.1508L101.651 24.4787ZM103.837 30.6577C103.882 31.622 103.852 32.5864 103.748 33.5514L105.736 33.7655C105.851 32.6993 105.884 31.6325 105.835 30.5655L103.837 30.6577ZM103.751 33.5271L103.493 35.4724L105.476 35.7352L105.734 33.7899L103.751 33.5271ZM104.484 34.6038H87.9141V36.6038H104.484V34.6038ZM86.9215 35.4822C86.6181 37.9597 87.0152 40.1582 88.1971 42.0027L89.881 40.9236C89.0004 39.5494 88.6475 37.8416 88.9066 35.7253L86.9215 35.4822ZM88.2008 42.0084C89.4415 43.9158 91.3117 44.899 93.6728 44.9705L93.7334 42.9714C91.9695 42.918 90.7304 42.2293 89.8773 40.9179L88.2008 42.0084ZM93.6781 44.9707C96.5377 45.0422 99.1105 43.739 101.377 41.2726L99.9043 39.9193C97.9207 42.078 95.8686 43.0248 93.7281 42.9713L93.6781 44.9707ZM99.9947 41.3594L102.432 43.4219L103.724 41.8951L101.287 39.8326L99.9947 41.3594ZM102.257 42.0884C101.289 43.4832 100.039 44.5785 98.4928 45.3801L99.4134 47.1556C101.242 46.2072 102.743 44.8963 103.9 43.2286L102.257 42.0884ZM98.496 45.3785C96.9839 46.1557 95.2814 46.5392 93.3667 46.5102L93.3364 48.5099C95.5467 48.5434 97.5786 48.0988 99.4103 47.1572L98.496 45.3785ZM96.0737 23.7526C94.0514 23.6984 92.2665 24.3958 90.768 25.805L92.1382 27.2619C93.2648 26.2024 94.5424 25.7123 96.0201 25.7519L96.0737 23.7526ZM90.7637 25.8091C89.3027 27.1997 88.2014 29.2073 87.4053 31.7416L89.3134 32.341C90.0486 30.0002 91.0098 28.336 92.1426 27.2578L90.7637 25.8091ZM88.3575 33.0413L100.686 33.0647L100.689 31.0647L88.3613 31.0413L88.3575 33.0413ZM101.658 32.3073L101.751 31.9323L99.8111 31.4472L99.7174 31.8222L101.658 32.3073ZM101.773 31.8157C102.046 29.6694 101.708 27.7731 100.645 26.2252L98.996 27.3574C99.7142 28.4032 100.017 29.7726 99.7892 31.5638L101.773 31.8157ZM100.652 26.2366C99.589 24.6416 98.0246 23.8083 96.0754 23.7526L96.0183 25.7518C97.3504 25.7899 98.3016 26.316 98.9883 27.346L100.652 26.2366ZM118.477 15.5413L119.461 15.7142L119.667 14.5413H118.477V15.5413ZM117.398 21.6819L116.414 21.509L116.208 22.6819H117.398V21.6819ZM122.016 21.6819L123.001 21.8541L123.206 20.6819H122.016V21.6819ZM121.43 25.0335V26.0335H122.27L122.415 25.2057L121.43 25.0335ZM116.836 25.0335V24.0335H115.99L115.85 24.8679L116.836 25.0335ZM114.188 40.8069L113.201 40.6413L113.197 40.6667L113.194 40.6923L114.188 40.8069ZM114.164 41.9319L115.16 41.8425L115.16 41.8414L114.164 41.9319ZM118.219 43.5257L119.214 43.618L119.336 42.3061L118.04 42.5418L118.219 43.5257ZM117.891 47.0647L118.158 48.0285L118.823 47.8443L118.886 47.157L117.891 47.0647ZM114.797 47.4866L114.778 48.4864L114.788 48.4866H114.797V47.4866ZM111 45.635L110.178 46.2043L110.181 46.2092L111 45.635ZM110.016 40.7366L109.029 40.5746L109.023 40.6098L109.02 40.6454L110.016 40.7366ZM112.594 25.0335L113.581 25.1955L113.771 24.0335H112.594V25.0335ZM108.117 25.0335L107.132 24.8613L106.927 26.0335H108.117V25.0335ZM108.703 21.6819V20.6819H107.863L107.718 21.5097L108.703 21.6819ZM113.18 21.6819V22.6819H114.019L114.165 21.8548L113.18 21.6819ZM114.258 15.5413V14.5413H113.418L113.273 15.3684L114.258 15.5413ZM117.492 15.3684L116.414 21.509L118.383 21.8548L119.461 15.7142L117.492 15.3684ZM117.398 22.6819H122.016V20.6819H117.398V22.6819ZM121.031 21.5097L120.445 24.8613L122.415 25.2057L123.001 21.8541L121.031 21.5097ZM121.43 24.0335H116.836V26.0335H121.43V24.0335ZM115.85 24.8679L113.201 40.6413L115.174 40.9725L117.822 25.1991L115.85 24.8679ZM113.194 40.6923C113.141 41.1546 113.13 41.5993 113.168 42.0224L115.16 41.8414C115.136 41.5771 115.14 41.2718 115.181 40.9215L113.194 40.6923ZM113.168 42.0213C113.237 42.789 113.495 43.5143 114.068 44.0398C114.641 44.5659 115.386 44.76 116.156 44.76V42.76C115.708 42.76 115.511 42.6495 115.42 42.5662C115.329 42.4823 115.201 42.2936 115.16 41.8425L113.168 42.0213ZM116.156 44.76C116.759 44.76 117.514 44.6702 118.398 44.5095L118.04 42.5418C117.205 42.6936 116.585 42.76 116.156 42.76V44.76ZM117.223 43.4333L116.895 46.9724L118.886 47.157L119.214 43.618L117.223 43.4333ZM117.624 46.101C116.694 46.3583 115.753 46.4866 114.797 46.4866V48.4866C115.935 48.4866 117.056 48.3336 118.158 48.0285L117.624 46.101ZM114.815 46.4868C113.393 46.4604 112.45 45.9609 111.819 45.0609L110.181 46.2092C111.238 47.7154 112.826 48.4503 114.778 48.4864L114.815 46.4868ZM111.822 45.0658C111.156 44.103 110.837 42.7307 111.011 40.8278L109.02 40.6454C108.819 42.8362 109.157 44.7296 110.178 46.2042L111.822 45.0658ZM111.002 40.8986L113.581 25.1955L111.607 24.8715L109.029 40.5746L111.002 40.8986ZM112.594 24.0335H108.117V26.0335H112.594V24.0335ZM109.102 25.2057L109.688 21.8541L107.718 21.5097L107.132 24.8613L109.102 25.2057ZM108.703 22.6819H113.18V20.6819H108.703V22.6819ZM114.165 21.8548L115.243 15.7142L113.273 15.3684L112.195 21.509L114.165 21.8548ZM114.258 16.5413H118.477V14.5413H114.258V16.5413ZM138.516 25.5491L138.41 26.5435L139.395 26.6478L139.509 25.6646L138.516 25.5491ZM136.523 25.3382L136.629 24.3437L136.576 24.3382H136.523V25.3382ZM130.102 29.0178L129.258 28.4806L129.15 28.6498L129.116 28.8474L130.102 29.0178ZM126.984 47.0413V48.0413H127.826L127.97 47.2117L126.984 47.0413ZM122.742 47.0413L121.757 46.8701L121.553 48.0413H122.742V47.0413ZM127.148 21.6819L127.143 20.6819L126.306 20.6867L126.163 21.5107L127.148 21.6819ZM131.25 21.6585L132.228 21.868L132.489 20.6514L131.244 20.6585L131.25 21.6585ZM130.617 24.6116L129.639 24.4021L131.413 25.2175L130.617 24.6116ZM136.969 21.1663L136.943 22.166L136.956 22.1663H136.969V21.1663ZM138.984 21.5178L139.978 21.6333L140.076 20.7875L139.257 20.5556L138.984 21.5178ZM138.621 24.5547L136.629 24.3437L136.418 26.3326L138.41 26.5435L138.621 24.5547ZM136.523 24.3382C133.435 24.3382 130.989 25.7634 129.258 28.4806L130.945 29.5551C132.339 27.3661 134.174 26.3382 136.523 26.3382V24.3382ZM129.116 28.8474L125.999 46.8709L127.97 47.2117L131.087 29.1883L129.116 28.8474ZM126.984 46.0413H122.742V48.0413H126.984V46.0413ZM123.727 47.2125L128.134 21.8531L126.163 21.5107L121.757 46.8701L123.727 47.2125ZM127.154 22.6819L131.256 22.6585L131.244 20.6585L127.143 20.6819L127.154 22.6819ZM130.272 21.4489L129.639 24.4021L131.595 24.8211L132.228 21.868L130.272 21.4489ZM131.413 25.2175C133.062 23.0513 134.898 22.1135 136.943 22.166L136.994 20.1666C134.165 20.0941 131.766 21.4531 129.822 24.0057L131.413 25.2175ZM136.969 22.1663C137.351 22.1663 137.922 22.2564 138.712 22.4801L139.257 20.5556C138.391 20.3105 137.617 20.1663 136.969 20.1663V22.1663ZM137.991 21.4023L137.522 25.4336L139.509 25.6646L139.978 21.6333L137.991 21.4023ZM143.32 47.0413V48.0413H144.162L144.306 47.2125L143.32 47.0413ZM139.102 47.0413L138.116 46.8701L137.913 48.0413H139.102V47.0413ZM143.508 21.6819V20.6819H142.667L142.523 21.5107L143.508 21.6819ZM147.727 21.6819L148.712 21.8531L148.915 20.6819H147.727V21.6819ZM146.812 12.4241L146.855 13.4232L146.856 13.4232L146.812 12.4241ZM148.594 13.0803L147.887 13.7875L147.898 13.7992L147.911 13.8106L148.594 13.0803ZM149.32 14.885L150.32 14.9063L150.32 14.8957V14.885H149.32ZM148.594 16.6897L147.887 15.9826L147.881 15.9886L147.875 15.9947L148.594 16.6897ZM143.32 46.0413H139.102V48.0413H143.32V46.0413ZM140.087 47.2125L144.493 21.8531L142.523 21.5107L138.116 46.8701L140.087 47.2125ZM143.508 22.6819H147.727V20.6819H143.508V22.6819ZM146.741 21.5107L142.335 46.8701L144.306 47.2125L148.712 21.8531L146.741 21.5107ZM146.856 13.4232C147.321 13.4029 147.634 13.5351 147.887 13.7875L149.301 12.3732C148.616 11.6881 147.741 11.3828 146.769 11.425L146.856 13.4232ZM147.911 13.8106C148.165 14.049 148.32 14.372 148.32 14.885H150.32C150.32 13.8981 149.991 13.0179 149.277 12.3501L147.911 13.8106ZM148.321 14.8638C148.31 15.3707 148.153 15.7166 147.887 15.9826L149.301 17.3968C149.972 16.7254 150.3 15.8681 150.32 14.9063L148.321 14.8638ZM147.875 15.9947C147.623 16.2552 147.284 16.4188 146.77 16.4406L146.855 18.4388C147.81 18.3982 148.658 18.0618 149.313 17.3847L147.875 15.9947ZM146.77 16.4406C146.271 16.4619 145.949 16.3254 145.703 16.0879L144.313 17.5259C145.005 18.1947 145.885 18.4801 146.855 18.4388L146.77 16.4406ZM145.703 16.0879C145.461 15.8539 145.317 15.5418 145.328 15.0469L143.328 15.0044C143.308 15.9782 143.617 16.8537 144.313 17.5259L145.703 16.0879ZM145.328 15.0469C145.339 14.5303 145.495 14.1654 145.762 13.8807L144.301 12.5144C143.661 13.1985 143.349 14.0523 143.328 15.0044L145.328 15.0469ZM145.762 13.8807C146.016 13.6092 146.351 13.4446 146.855 13.4232L146.77 11.425C145.805 11.4661 144.953 11.8172 144.301 12.5144L145.762 13.8807ZM159.352 35.346L160.225 34.8593L159.617 33.7672L158.685 34.6006L159.352 35.346ZM156.023 38.3225L155.357 37.5772L155.097 37.8095L155.038 38.153L156.023 38.3225ZM154.523 47.0413V48.0413H155.366L155.509 47.2108L154.523 47.0413ZM150.281 47.0413L149.296 46.87L149.092 48.0413H150.281V47.0413ZM156.539 11.0413V10.0413H155.698L155.554 10.87L156.539 11.0413ZM160.781 11.0413L161.766 11.213L161.971 10.0413H160.781V11.0413ZM157.031 32.5569L156.046 32.3852L155.499 35.5234L157.742 33.2608L157.031 32.5569ZM159.633 29.9319L158.957 29.1948L158.939 29.211L158.923 29.228L159.633 29.9319ZM168.633 21.6819V20.6819H168.244L167.957 20.9448L168.633 21.6819ZM174.141 21.6819L174.821 22.4151L176.689 20.6819H174.141V21.6819ZM162.492 32.4866L161.812 31.7534L161.239 32.2847L161.616 32.969L162.492 32.4866ZM170.508 47.0413V48.0413H172.2L171.384 46.5589L170.508 47.0413ZM165.867 47.0413L164.994 47.528L165.28 48.0413H165.867V47.0413ZM158.685 34.6006L155.357 37.5772L156.69 39.0679L160.018 36.0914L158.685 34.6006ZM155.038 38.153L153.538 46.8717L155.509 47.2108L157.009 38.4921L155.038 38.153ZM154.523 46.0413H150.281V48.0413H154.523V46.0413ZM151.266 47.2125L157.524 11.2125L155.554 10.87L149.296 46.87L151.266 47.2125ZM156.539 12.0413H160.781V10.0413H156.539V12.0413ZM159.796 10.8696L156.046 32.3852L158.016 32.7286L161.766 11.213L159.796 10.8696ZM157.742 33.2608L160.343 30.6358L158.923 29.228L156.321 31.853L157.742 33.2608ZM160.309 30.6691L169.309 22.4191L167.957 20.9448L158.957 29.1948L160.309 30.6691ZM168.633 22.6819H174.141V20.6819H168.633V22.6819ZM173.461 20.9488L161.812 31.7534L163.172 33.2198L174.821 22.4151L173.461 20.9488ZM161.616 32.969L169.632 47.5237L171.384 46.5589L163.368 32.0042L161.616 32.969ZM170.508 46.0413H165.867V48.0413H170.508V46.0413ZM166.741 46.5546L160.225 34.8593L158.478 35.8327L164.994 47.528L166.741 46.5546Z" fill="white"/>
<path fill-rule="evenodd" clip-rule="evenodd" d="M178.864 58.0676L172.849 51.9977L185.696 39.5806L175.018 28.3056L192.719 12.0096L186.081 4.90559L207.888 2.98311L204.557 24.9799L198.37 18.1642L186.997 28.6668L197.674 39.9418L178.864 58.0676Z" fill="white"/>
</svg>
