<svg width="219" height="61" viewBox="0 0 219 61" fill="none" xmlns="http://www.w3.org/2000/svg">
<path d="M1.38281 48L7.3125 13.875L17.3203 13.8984C20.8047 13.8984 23.4141 14.6797 25.1484 16.2422C26.8828 17.8047 27.6406 19.9844 27.4219 22.7812C27.1406 26.0469 25.0859 28.5078 21.2578 30.1641C22.7891 30.7578 23.9297 31.7734 24.6797 33.2109C25.4453 34.6484 25.7578 36.2344 25.6172 37.9688C25.3828 41.0469 24.1484 43.4922 21.9141 45.3047C19.6797 47.1016 16.7891 48 13.2422 48H1.38281ZM8.55469 32.0391L6.42188 44.3203L13.3828 44.3438C15.5078 44.3438 17.2891 43.7734 18.7266 42.6328C20.1641 41.4922 21 39.9531 21.2344 38.0156C21.4531 36.1719 21.1328 34.7344 20.2734 33.7031C19.4141 32.6719 18.0625 32.125 16.2188 32.0625L8.55469 32.0391ZM9.1875 28.4297L15.5391 28.4531C17.5234 28.4531 19.1953 27.9453 20.5547 26.9297C21.9297 25.9141 22.7344 24.5156 22.9688 22.7344C23.1719 21.0781 22.8438 19.8281 21.9844 18.9844C21.1406 18.1406 19.7344 17.6797 17.7656 17.6016L11.0625 17.5781L9.1875 28.4297ZM34.5703 48H30.3516L34.7578 22.6406H38.9766L34.5703 48ZM38.0625 13.3828C38.7812 13.3516 39.375 13.5703 39.8438 14.0391C40.3281 14.4922 40.5703 15.0938 40.5703 15.8438C40.5547 16.5781 40.3125 17.1797 39.8438 17.6484C39.3906 18.1172 38.7969 18.3672 38.0625 18.3984C37.3281 18.4297 36.7266 18.2188 36.2578 17.7656C35.7891 17.3125 35.5625 16.7188 35.5781 15.9844C35.5938 15.25 35.8281 14.6406 36.2812 14.1562C36.7344 13.6719 37.3281 13.4141 38.0625 13.3828ZM53.6484 13.875L59.625 41.6719L75.2812 13.875H81.0703L75.1406 48H70.7578L73.1016 34.5L75.8906 20.7656L60.4219 48H57.0469L50.9531 20.2266L48.8438 34.9453L46.5703 48H42.1641L48.0938 13.875H53.6484ZM93.3516 48.4688C90.1953 48.4062 87.7266 47.2422 85.9453 44.9766C84.1641 42.7109 83.4141 39.8125 83.6953 36.2812L83.8125 35.2734C84.0781 32.7578 84.8203 30.4609 86.0391 28.3828C87.2734 26.3047 88.7734 24.7422 90.5391 23.6953C92.3047 22.6328 94.2109 22.125 96.2578 22.1719C98.8672 22.2344 100.914 23.1016 102.398 24.7734C103.883 26.4453 104.695 28.7109 104.836 31.5703C104.883 32.5859 104.852 33.6016 104.742 34.6172L104.484 36.5625H87.9141C87.6328 38.8594 88.0078 40.8125 89.0391 42.4219C90.0859 44.0312 91.6406 44.8672 93.7031 44.9297C96.2031 44.9922 98.5156 43.8672 100.641 41.5547L103.078 43.6172C102.016 45.1484 100.641 46.3516 98.9531 47.2266C97.2812 48.0859 95.4141 48.5 93.3516 48.4688ZM96.0469 25.7109C94.2969 25.6641 92.7656 26.2578 91.4531 27.4922C90.1562 28.7266 89.125 30.5625 88.3594 33L100.688 33.0234L100.781 32.6484C101.031 30.6797 100.711 29.0469 99.8203 27.75C98.9453 26.4375 97.6875 25.7578 96.0469 25.7109ZM118.477 16.5L117.398 22.6406H122.016L121.43 25.9922H116.836L114.188 41.7656C114.141 42.1719 114.133 42.5469 114.164 42.8906C114.273 44.1094 114.938 44.7188 116.156 44.7188C116.672 44.7188 117.359 44.6406 118.219 44.4844L117.891 48.0234C116.875 48.3047 115.844 48.4453 114.797 48.4453C113.109 48.4141 111.844 47.7969 111 46.5938C110.156 45.375 109.828 43.7422 110.016 41.6953L112.594 25.9922H108.117L108.703 22.6406H113.18L114.258 16.5H118.477ZM138.516 26.5078L136.523 26.2969C133.805 26.2969 131.664 27.5234 130.102 29.9766L126.984 48H122.742L127.148 22.6406L131.25 22.6172L130.617 25.5703C132.414 23.2109 134.531 22.0625 136.969 22.125C137.484 22.125 138.156 22.2422 138.984 22.4766L138.516 26.5078ZM143.32 48H139.102L143.508 22.6406H147.727L143.32 48ZM146.812 13.3828C147.531 13.3516 148.125 13.5703 148.594 14.0391C149.078 14.4922 149.32 15.0938 149.32 15.8438C149.305 16.5781 149.062 17.1797 148.594 17.6484C148.141 18.1172 147.547 18.3672 146.812 18.3984C146.078 18.4297 145.477 18.2188 145.008 17.7656C144.539 17.3125 144.312 16.7188 144.328 15.9844C144.344 15.25 144.578 14.6406 145.031 14.1562C145.484 13.6719 146.078 13.4141 146.812 13.3828ZM159.352 36.3047L156.023 39.2812L154.523 48H150.281L156.539 12H160.781L157.031 33.5156L159.633 30.8906L168.633 22.6406H174.141L162.492 33.4453L170.508 48H165.867L159.352 36.3047Z" fill="#1D3E6E"/>
<path d="M1.38281 48L0.397576 47.8288L0.194064 49H1.38281V48ZM7.3125 13.875L7.31484 12.875L6.47162 12.873L6.32726 13.7038L7.3125 13.875ZM17.3203 13.8984L17.318 14.8984H17.3203V13.8984ZM27.4219 22.7812L28.4182 22.8671L28.4188 22.8592L27.4219 22.7812ZM21.2578 30.1641L20.8607 29.2463L18.6224 30.2147L20.8963 31.0964L21.2578 30.1641ZM24.6797 33.2109L23.7931 33.6735L23.7971 33.681L24.6797 33.2109ZM25.6172 37.9688L24.6204 37.8879L24.6201 37.8928L25.6172 37.9688ZM21.9141 45.3047L22.5408 46.084L22.544 46.0813L21.9141 45.3047ZM8.55469 32.0391L8.55775 31.0391L7.71383 31.0365L7.56943 31.868L8.55469 32.0391ZM6.42188 44.3203L5.43662 44.1492L5.23394 45.3163L6.41851 45.3203L6.42188 44.3203ZM13.3828 44.3438L13.3794 45.3438H13.3828V44.3438ZM21.2344 38.0156L22.2271 38.1357L22.2274 38.1334L21.2344 38.0156ZM16.2188 32.0625L16.2526 31.0631L16.2372 31.0626L16.2218 31.0625L16.2188 32.0625ZM9.1875 28.4297L8.2021 28.2594L8.00065 29.4253L9.18381 29.4297L9.1875 28.4297ZM15.5391 28.4531L15.5354 29.4531H15.5391V28.4531ZM20.5547 26.9297L19.9605 26.1253L19.9562 26.1286L20.5547 26.9297ZM22.9688 22.7344L23.9602 22.8648L23.9613 22.8561L22.9688 22.7344ZM21.9844 18.9844L21.2772 19.6915L21.2838 19.6979L21.9844 18.9844ZM17.7656 17.6016L17.8053 16.6023L17.7872 16.6016L17.7691 16.6016L17.7656 17.6016ZM11.0625 17.5781L11.066 16.5781L10.221 16.5752L10.0771 17.4079L11.0625 17.5781ZM2.36805 48.1712L8.29774 14.0462L6.32726 13.7038L0.397576 47.8288L2.36805 48.1712ZM7.31016 14.875L17.318 14.8984L17.3227 12.8984L7.31484 12.875L7.31016 14.875ZM17.3203 14.8984C20.6762 14.8984 23.0008 15.6533 24.4791 16.9851L25.8178 15.4992C23.8273 13.7061 20.9331 12.8984 17.3203 12.8984V14.8984ZM24.4791 16.9851C25.9352 18.2969 26.6249 20.1462 26.4249 22.7033L28.4188 22.8592C28.6563 19.8226 27.8305 17.3125 25.8178 15.4992L24.4791 16.9851ZM26.4256 22.6954C26.1848 25.4908 24.4592 27.6894 20.8607 29.2463L21.6549 31.0818C25.7127 29.3262 28.0964 26.603 28.4182 22.8671L26.4256 22.6954ZM20.8963 31.0964C22.2045 31.6037 23.1569 32.4542 23.7931 33.6735L25.5663 32.7484C24.7025 31.0927 23.3736 29.9119 21.6193 29.2317L20.8963 31.0964ZM23.7971 33.681C24.4665 34.9379 24.7467 36.3307 24.6205 37.8879L26.6139 38.0496C26.7689 36.1381 26.4241 34.359 25.5623 32.7408L23.7971 33.681ZM24.6201 37.8928C24.4049 40.7192 23.2882 42.9024 21.2841 44.5281L22.544 46.0813C25.0087 44.082 26.3608 41.3746 26.6143 38.0447L24.6201 37.8928ZM21.2874 44.5254C19.2695 46.1482 16.6166 47 13.2422 47V49C16.9615 49 20.0898 48.055 22.5407 46.084L21.2874 44.5254ZM13.2422 47H1.38281V49H13.2422V47ZM7.56943 31.868L5.43662 44.1492L7.40713 44.4914L9.53994 32.2102L7.56943 31.868ZM6.41851 45.3203L13.3794 45.3437L13.3862 43.3438L6.42524 43.3203L6.41851 45.3203ZM13.3828 45.3438C15.6962 45.3438 17.7066 44.7187 19.3481 43.4162L18.105 41.8495C16.8715 42.8282 15.3194 43.3438 13.3828 43.3438V45.3438ZM19.3481 43.4162C21.0059 42.1008 21.9634 40.3162 22.2271 38.1357L20.2416 37.8955C20.0366 39.5901 19.3222 40.8836 18.105 41.8495L19.3481 43.4162ZM22.2274 38.1334C22.4658 36.1244 22.1359 34.376 21.0417 33.0629L19.5052 34.3433C20.1297 35.0927 20.4405 36.2194 20.2413 37.8978L22.2274 38.1334ZM21.0417 33.0629C19.9392 31.74 18.2702 31.1315 16.2526 31.0631L16.1849 33.0619C17.8548 33.1185 18.8889 33.6038 19.5052 34.3433L21.0417 33.0629ZM16.2218 31.0625L8.55775 31.0391L8.55163 33.0391L16.2157 33.0625L16.2218 31.0625ZM9.18381 29.4297L15.5354 29.4531L15.5428 27.4531L9.19119 27.4297L9.18381 29.4297ZM15.5391 29.4531C17.7013 29.4531 19.5929 28.8965 21.1532 27.7308L19.9562 26.1286C18.7977 26.9941 17.3456 27.4531 15.5391 27.4531V29.4531ZM21.1488 27.7341C22.7544 26.5481 23.6924 24.9 23.9602 22.8648L21.9773 22.6039C21.7763 24.1313 21.1049 25.28 19.9606 26.1253L21.1488 27.7341ZM23.9613 22.8561C24.1868 21.0179 23.8438 19.4085 22.685 18.2708L21.2838 19.6979C21.8437 20.2477 22.157 21.1383 21.9762 22.6126L23.9613 22.8561ZM22.6915 18.2773C21.5849 17.1707 19.8717 16.6844 17.8053 16.6023L17.726 18.6008C19.597 18.675 20.6963 19.1105 21.2773 19.6915L22.6915 18.2773ZM17.7691 16.6016L11.066 16.5781L11.059 18.5781L17.7621 18.6016L17.7691 16.6016ZM10.0771 17.4079L8.2021 28.2594L10.1729 28.6L12.0479 17.7484L10.0771 17.4079ZM34.5703 48V49H35.4115L35.5556 48.1712L34.5703 48ZM30.3516 48L29.3663 47.8288L29.1628 49H30.3516V48ZM34.7578 22.6406V21.6406H33.9166L33.7726 22.4694L34.7578 22.6406ZM38.9766 22.6406L39.9618 22.8118L40.1653 21.6406H38.9766V22.6406ZM38.0625 13.3828L38.105 14.3819L38.1059 14.3819L38.0625 13.3828ZM39.8438 14.0391L39.1366 14.7462L39.1484 14.758L39.1606 14.7693L39.8438 14.0391ZM40.5703 15.8438L41.5701 15.865L41.5703 15.8544V15.8438H40.5703ZM39.8438 17.6484L39.1366 16.9413L39.1307 16.9473L39.1248 16.9534L39.8438 17.6484ZM34.5703 47H30.3516V49H34.5703V47ZM31.3368 48.1712L35.7431 22.8118L33.7726 22.4694L29.3663 47.8288L31.3368 48.1712ZM34.7578 23.6406H38.9766V21.6406H34.7578V23.6406ZM37.9913 22.4694L33.5851 47.8288L35.5556 48.1712L39.9618 22.8118L37.9913 22.4694ZM38.1059 14.3819C38.5713 14.3616 38.8842 14.4938 39.1366 14.7462L40.5509 13.332C39.8658 12.6469 38.9912 12.3415 38.0191 12.3838L38.1059 14.3819ZM39.1606 14.7693C39.4155 15.0078 39.5703 15.3307 39.5703 15.8438H41.5703C41.5703 14.8568 41.2408 13.9766 40.5269 13.3088L39.1606 14.7693ZM39.5705 15.8225C39.5598 16.3294 39.4027 16.6753 39.1366 16.9413L40.5509 18.3555C41.2223 17.6841 41.5496 16.8269 41.5701 15.865L39.5705 15.8225ZM39.1248 16.9534C38.873 17.2139 38.5336 17.3775 38.02 17.3993L38.105 19.3975C39.0602 19.3569 39.9083 19.0205 40.5627 18.3435L39.1248 16.9534ZM38.02 17.3993C37.5211 17.4206 37.1985 17.2841 36.9528 17.0466L35.5628 18.4846C36.2546 19.1534 37.1352 19.4388 38.105 19.3975L38.02 17.3993ZM36.9528 17.0466C36.7107 16.8126 36.5674 16.5006 36.5779 16.0056L34.5784 15.9631C34.5576 16.9369 34.8674 17.8124 35.5628 18.4846L36.9528 17.0466ZM36.5779 16.0056C36.5889 15.489 36.7452 15.1241 37.0115 14.8394L35.551 13.4731C34.911 14.1572 34.5986 15.011 34.5784 15.9631L36.5779 16.0056ZM37.0115 14.8394C37.2655 14.5679 37.6015 14.4033 38.105 14.3819L38.02 12.3837C37.0548 12.4248 36.2032 12.7759 35.551 13.4731L37.0115 14.8394ZM53.6484 13.875L54.6261 13.6648L54.4563 12.875H53.6484V13.875ZM59.625 41.6719L58.6473 41.8821L59.2018 44.4609L60.4963 42.1626L59.625 41.6719ZM75.2812 13.875V12.875H74.6968L74.4099 13.3843L75.2812 13.875ZM81.0703 13.875L82.0555 14.0462L82.2591 12.875H81.0703V13.875ZM75.1406 48V49H75.9818L76.1259 48.1712L75.1406 48ZM70.7578 48L69.7726 47.8289L69.5692 49H70.7578V48ZM73.1016 34.5L72.1216 34.301L72.1187 34.3149L72.1163 34.3289L73.1016 34.5ZM75.8906 20.7656L76.8706 20.9646L75.0211 20.2717L75.8906 20.7656ZM60.4219 48V49H61.0039L61.2914 48.4939L60.4219 48ZM57.0469 48L56.0701 48.2143L56.2425 49H57.0469V48ZM50.9531 20.2266L51.9299 20.0123L49.9632 20.0847L50.9531 20.2266ZM48.8438 34.9453L49.8289 35.1169L49.8315 35.1021L49.8336 35.0872L48.8438 34.9453ZM46.5703 48V49H47.4112L47.5555 48.1716L46.5703 48ZM42.1641 48L41.1788 47.8288L40.9753 49H42.1641V48ZM48.0938 13.875V12.875H47.2525L47.1085 13.7038L48.0938 13.875ZM52.6708 14.0852L58.6473 41.8821L60.6027 41.4617L54.6261 13.6648L52.6708 14.0852ZM60.4963 42.1626L76.1526 14.3657L74.4099 13.3843L58.7537 41.1811L60.4963 42.1626ZM75.2812 14.875H81.0703V12.875H75.2812V14.875ZM80.0851 13.7038L74.1554 47.8288L76.1259 48.1712L82.0555 14.0462L80.0851 13.7038ZM75.1406 47H70.7578V49H75.1406V47ZM71.7431 48.1711L74.0868 34.6711L72.1163 34.3289L69.7726 47.8289L71.7431 48.1711ZM74.0816 34.699L76.8706 20.9646L74.9106 20.5666L72.1216 34.301L74.0816 34.699ZM75.0211 20.2717L59.5523 47.5061L61.2914 48.4939L76.7602 21.2595L75.0211 20.2717ZM60.4219 47H57.0469V49H60.4219V47ZM58.0236 47.7857L51.9299 20.0123L49.9764 20.4409L56.0701 48.2143L58.0236 47.7857ZM49.9632 20.0847L47.8539 34.8034L49.8336 35.0872L51.943 20.3684L49.9632 20.0847ZM47.8586 34.7737L45.5851 47.8284L47.5555 48.1716L49.8289 35.1169L47.8586 34.7737ZM46.5703 47H42.1641V49H46.5703V47ZM43.1493 48.1712L49.079 14.0462L47.1085 13.7038L41.1788 47.8288L43.1493 48.1712ZM48.0938 14.875H53.6484V12.875H48.0938V14.875ZM93.3516 48.4688L93.3318 49.4686L93.3364 49.4686L93.3516 48.4688ZM83.6953 36.2812L82.702 36.1657L82.6999 36.1838L82.6985 36.2019L83.6953 36.2812ZM83.8125 35.2734L84.8059 35.3889L84.807 35.3784L83.8125 35.2734ZM86.0391 28.3828L85.1793 27.8721L85.1765 27.8769L86.0391 28.3828ZM90.5391 23.6953L91.0491 24.5555L91.0547 24.5521L90.5391 23.6953ZM96.2578 22.1719L96.2818 21.1722L96.2807 21.1721L96.2578 22.1719ZM104.836 31.5703L105.835 31.5242L105.835 31.5212L104.836 31.5703ZM104.742 34.6172L105.734 34.7486L105.735 34.7364L105.736 34.7243L104.742 34.6172ZM104.484 36.5625V37.5625H105.361L105.476 36.6939L104.484 36.5625ZM87.9141 36.5625V35.5625H87.029L86.9215 36.441L87.9141 36.5625ZM89.0391 42.4219L88.1971 42.9614L88.2008 42.9671L89.0391 42.4219ZM93.7031 44.9297L93.6728 45.9292L93.6781 45.9294L93.7031 44.9297ZM100.641 41.5547L101.287 40.7913L100.554 40.1713L99.9043 40.8781L100.641 41.5547ZM103.078 43.6172L103.9 44.1873L104.418 43.4407L103.724 42.8538L103.078 43.6172ZM98.9531 47.2266L99.4103 48.116L99.4134 48.1143L98.9531 47.2266ZM96.0469 25.7109L96.0754 24.7113L96.0737 24.7113L96.0469 25.7109ZM91.4531 27.4922L90.768 26.7637L90.7637 26.7678L91.4531 27.4922ZM88.3594 33L87.4053 32.7003L86.9979 33.9974L88.3575 34L88.3594 33ZM100.688 33.0234L100.686 34.0234L101.468 34.0249L101.658 33.266L100.688 33.0234ZM100.781 32.6484L101.751 32.891L101.766 32.8333L101.773 32.7744L100.781 32.6484ZM99.8203 27.75L98.9882 28.3048L98.996 28.3161L99.8203 27.75ZM93.3714 47.4689C90.4823 47.4117 88.3082 46.364 86.7314 44.3585L85.1592 45.5946C87.1449 48.1204 89.9083 49.4008 93.3318 49.4686L93.3714 47.4689ZM86.7314 44.3585C85.1394 42.3335 84.4261 39.7015 84.6922 36.3606L82.6985 36.2019C82.4021 39.9235 83.1888 43.0884 85.1592 45.5946L86.7314 44.3585ZM84.6886 36.3968L84.8058 35.3889L82.8192 35.1579L82.702 36.1657L84.6886 36.3968ZM84.807 35.3784C85.0584 32.9971 85.7585 30.838 86.9017 28.8887L85.1765 27.8769C83.8821 30.0839 83.0978 32.5186 82.818 35.1684L84.807 35.3784ZM86.8988 28.8935C88.0629 26.9337 89.4511 25.503 91.0491 24.5555L90.0291 22.8351C88.0958 23.9814 86.484 25.6757 85.1793 27.8721L86.8988 28.8935ZM91.0547 24.5521C92.6591 23.5867 94.3788 23.1291 96.2349 23.1716L96.2807 21.1721C94.0431 21.1209 91.9503 21.679 90.0235 22.8385L91.0547 24.5521ZM96.2339 23.1716C98.6165 23.2287 100.382 24.0081 101.651 25.4374L103.146 24.1095C101.446 22.195 99.1178 21.2401 96.2818 21.1722L96.2339 23.1716ZM101.651 25.4374C102.946 26.896 103.705 28.9228 103.837 31.6194L105.835 31.5212C105.686 28.4991 104.82 25.9947 103.146 24.1095L101.651 25.4374ZM103.837 31.6164C103.882 32.5807 103.852 33.5451 103.748 34.5101L105.736 34.7243C105.851 33.658 105.884 32.5912 105.835 31.5242L103.837 31.6164ZM103.751 34.4858L103.493 36.4311L105.476 36.6939L105.734 34.7486L103.751 34.4858ZM104.484 35.5625H87.9141V37.5625H104.484V35.5625ZM86.9215 36.441C86.6181 38.9184 87.0152 41.1169 88.1971 42.9614L89.881 41.8824C89.0004 40.5081 88.6475 38.8003 88.9066 36.684L86.9215 36.441ZM88.2008 42.9671C89.4415 44.8745 91.3117 45.8577 93.6728 45.9292L93.7334 43.9301C91.9695 43.8767 90.7304 43.188 89.8773 41.8766L88.2008 42.9671ZM93.6781 45.9294C96.5377 46.0009 99.1105 44.6977 101.377 42.2313L99.9043 40.8781C97.9207 43.0367 95.8686 43.9835 93.7281 43.93L93.6781 45.9294ZM99.9947 42.3181L102.432 44.3806L103.724 42.8538L101.287 40.7913L99.9947 42.3181ZM102.257 43.0471C101.289 44.4419 100.039 45.5372 98.4928 46.3388L99.4134 48.1143C101.242 47.166 102.743 45.855 103.9 44.1873L102.257 43.0471ZM98.496 46.3372C96.9839 47.1144 95.2814 47.4979 93.3667 47.4689L93.3364 49.4686C95.5467 49.5021 97.5786 49.0575 99.4103 48.1159L98.496 46.3372ZM96.0737 24.7113C94.0514 24.6571 92.2665 25.3545 90.768 26.7637L92.1382 28.2206C93.2648 27.1611 94.5424 26.671 96.0201 26.7106L96.0737 24.7113ZM90.7637 26.7678C89.3027 28.1584 88.2014 30.1661 87.4053 32.7003L89.3134 33.2997C90.0486 30.9589 91.0098 29.2947 92.1426 28.2165L90.7637 26.7678ZM88.3575 34L100.686 34.0234L100.689 32.0234L88.3613 32L88.3575 34ZM101.658 33.266L101.751 32.891L99.8111 32.4059L99.7174 32.7809L101.658 33.266ZM101.773 32.7744C102.046 30.6281 101.708 28.7318 100.645 27.1839L98.996 28.3161C99.7142 29.3619 100.017 30.7313 99.7892 32.5225L101.773 32.7744ZM100.652 27.1953C99.589 25.6003 98.0246 24.767 96.0754 24.7113L96.0183 26.7105C97.3504 26.7486 98.3016 27.2747 98.9883 28.3047L100.652 27.1953ZM118.477 16.5L119.461 16.6729L119.667 15.5H118.477V16.5ZM117.398 22.6406L116.414 22.4677L116.208 23.6406H117.398V22.6406ZM122.016 22.6406L123.001 22.8128L123.206 21.6406H122.016V22.6406ZM121.43 25.9922V26.9922H122.27L122.415 26.1644L121.43 25.9922ZM116.836 25.9922V24.9922H115.99L115.85 25.8266L116.836 25.9922ZM114.188 41.7656L113.201 41.6L113.197 41.6254L113.194 41.651L114.188 41.7656ZM114.164 42.8906L115.16 42.8012L115.16 42.8001L114.164 42.8906ZM118.219 44.4844L119.214 44.5767L119.336 43.2648L118.04 43.5005L118.219 44.4844ZM117.891 48.0234L118.158 48.9872L118.823 48.803L118.886 48.1158L117.891 48.0234ZM114.797 48.4453L114.778 49.4451L114.788 49.4453H114.797V48.4453ZM111 46.5938L110.178 47.163L110.181 47.1679L111 46.5938ZM110.016 41.6953L109.029 41.5333L109.023 41.5685L109.02 41.6041L110.016 41.6953ZM112.594 25.9922L113.581 26.1542L113.771 24.9922H112.594V25.9922ZM108.117 25.9922L107.132 25.82L106.927 26.9922H108.117V25.9922ZM108.703 22.6406V21.6406H107.863L107.718 22.4684L108.703 22.6406ZM113.18 22.6406V23.6406H114.019L114.165 22.8136L113.18 22.6406ZM114.258 16.5V15.5H113.418L113.273 16.3271L114.258 16.5ZM117.492 16.3271L116.414 22.4677L118.383 22.8136L119.461 16.6729L117.492 16.3271ZM117.398 23.6406H122.016V21.6406H117.398V23.6406ZM121.031 22.4684L120.445 25.82L122.415 26.1644L123.001 22.8128L121.031 22.4684ZM121.43 24.9922H116.836V26.9922H121.43V24.9922ZM115.85 25.8266L113.201 41.6L115.174 41.9312L117.822 26.1578L115.85 25.8266ZM113.194 41.651C113.141 42.1133 113.13 42.558 113.168 42.9812L115.16 42.8001C115.136 42.5358 115.14 42.2305 115.181 41.8802L113.194 41.651ZM113.168 42.98C113.237 43.7477 113.495 44.473 114.068 44.9985C114.641 45.5246 115.386 45.7188 116.156 45.7188V43.7188C115.708 43.7188 115.511 43.6082 115.42 43.5249C115.329 43.4411 115.201 43.2523 115.16 42.8012L113.168 42.98ZM116.156 45.7188C116.759 45.7188 117.514 45.6289 118.398 45.4682L118.04 43.5005C117.205 43.6523 116.585 43.7188 116.156 43.7188V45.7188ZM117.223 44.3921L116.895 47.9311L118.886 48.1158L119.214 44.5767L117.223 44.3921ZM117.624 47.0597C116.694 47.3171 115.753 47.4453 114.797 47.4453V49.4453C115.935 49.4453 117.056 49.2923 118.158 48.9872L117.624 47.0597ZM114.815 47.4455C113.393 47.4191 112.45 46.9196 111.819 46.0196L110.181 47.1679C111.238 48.6741 112.826 49.409 114.778 49.4451L114.815 47.4455ZM111.822 46.0245C111.156 45.0617 110.837 43.6894 111.011 41.7865L109.02 41.6041C108.819 43.795 109.157 45.6883 110.178 47.163L111.822 46.0245ZM111.002 41.8573L113.581 26.1542L111.607 25.8302L109.029 41.5333L111.002 41.8573ZM112.594 24.9922H108.117V26.9922H112.594V24.9922ZM109.102 26.1644L109.688 22.8128L107.718 22.4684L107.132 25.82L109.102 26.1644ZM108.703 23.6406H113.18V21.6406H108.703V23.6406ZM114.165 22.8136L115.243 16.6729L113.273 16.3271L112.195 22.4677L114.165 22.8136ZM114.258 17.5H118.477V15.5H114.258V17.5ZM138.516 26.5078L138.41 27.5023L139.395 27.6065L139.509 26.6233L138.516 26.5078ZM136.523 26.2969L136.629 25.3024L136.576 25.2969H136.523V26.2969ZM130.102 29.9766L129.258 29.4393L129.15 29.6085L129.116 29.8061L130.102 29.9766ZM126.984 48V49H127.826L127.97 48.1704L126.984 48ZM122.742 48L121.757 47.8288L121.553 49H122.742V48ZM127.148 22.6406L127.143 21.6406L126.306 21.6454L126.163 22.4694L127.148 22.6406ZM131.25 22.6172L132.228 22.8267L132.489 21.6101L131.244 21.6172L131.25 22.6172ZM130.617 25.5703L129.639 25.3608L131.413 26.1762L130.617 25.5703ZM136.969 22.125L136.943 23.1247L136.956 23.125H136.969V22.125ZM138.984 22.4766L139.978 22.5921L140.076 21.7462L139.257 21.5144L138.984 22.4766ZM138.621 25.5134L136.629 25.3024L136.418 27.2913L138.41 27.5023L138.621 25.5134ZM136.523 25.2969C133.435 25.2969 130.989 26.7221 129.258 29.4393L130.945 30.5138C132.339 28.3248 134.174 27.2969 136.523 27.2969V25.2969ZM129.116 29.8061L125.999 47.8296L127.97 48.1704L131.087 30.147L129.116 29.8061ZM126.984 47H122.742V49H126.984V47ZM123.727 48.1712L128.134 22.8118L126.163 22.4694L121.757 47.8288L123.727 48.1712ZM127.154 23.6406L131.256 23.6172L131.244 21.6172L127.143 21.6406L127.154 23.6406ZM130.272 22.4077L129.639 25.3608L131.595 25.7798L132.228 22.8267L130.272 22.4077ZM131.413 26.1762C133.062 24.0101 134.898 23.0722 136.943 23.1247L136.994 21.1253C134.165 21.0528 131.766 22.4118 129.822 24.9644L131.413 26.1762ZM136.969 23.125C137.351 23.125 137.922 23.2151 138.712 23.4388L139.257 21.5144C138.391 21.2692 137.617 21.125 136.969 21.125V23.125ZM137.991 22.3611L137.522 26.3923L139.509 26.6233L139.978 22.5921L137.991 22.3611ZM143.32 48V49H144.162L144.306 48.1712L143.32 48ZM139.102 48L138.116 47.8288L137.913 49H139.102V48ZM143.508 22.6406V21.6406H142.667L142.523 22.4694L143.508 22.6406ZM147.727 22.6406L148.712 22.8118L148.915 21.6406H147.727V22.6406ZM146.812 13.3828L146.855 14.3819L146.856 14.3819L146.812 13.3828ZM148.594 14.0391L147.887 14.7462L147.898 14.758L147.911 14.7693L148.594 14.0391ZM149.32 15.8438L150.32 15.865L150.32 15.8544V15.8438H149.32ZM148.594 17.6484L147.887 16.9413L147.881 16.9473L147.875 16.9534L148.594 17.6484ZM143.32 47H139.102V49H143.32V47ZM140.087 48.1712L144.493 22.8118L142.523 22.4694L138.116 47.8288L140.087 48.1712ZM143.508 23.6406H147.727V21.6406H143.508V23.6406ZM146.741 22.4694L142.335 47.8288L144.306 48.1712L148.712 22.8118L146.741 22.4694ZM146.856 14.3819C147.321 14.3616 147.634 14.4938 147.887 14.7462L149.301 13.332C148.616 12.6469 147.741 12.3415 146.769 12.3838L146.856 14.3819ZM147.911 14.7693C148.165 15.0078 148.32 15.3307 148.32 15.8438H150.32C150.32 14.8568 149.991 13.9766 149.277 13.3088L147.911 14.7693ZM148.321 15.8225C148.31 16.3294 148.153 16.6753 147.887 16.9413L149.301 18.3555C149.972 17.6841 150.3 16.8269 150.32 15.865L148.321 15.8225ZM147.875 16.9534C147.623 17.2139 147.284 17.3775 146.77 17.3993L146.855 19.3975C147.81 19.3569 148.658 19.0205 149.313 18.3435L147.875 16.9534ZM146.77 17.3993C146.271 17.4206 145.949 17.2841 145.703 17.0466L144.313 18.4846C145.005 19.1534 145.885 19.4388 146.855 19.3975L146.77 17.3993ZM145.703 17.0466C145.461 16.8126 145.317 16.5006 145.328 16.0056L143.328 15.9631C143.308 16.9369 143.617 17.8124 144.313 18.4846L145.703 17.0466ZM145.328 16.0056C145.339 15.489 145.495 15.1241 145.762 14.8394L144.301 13.4731C143.661 14.1572 143.349 15.011 143.328 15.9631L145.328 16.0056ZM145.762 14.8394C146.016 14.5679 146.351 14.4033 146.855 14.3819L146.77 12.3837C145.805 12.4248 144.953 12.7759 144.301 13.4731L145.762 14.8394ZM159.352 36.3047L160.225 35.818L159.617 34.7259L158.685 35.5593L159.352 36.3047ZM156.023 39.2812L155.357 38.5359L155.097 38.7682L155.038 39.1117L156.023 39.2812ZM154.523 48V49H155.366L155.509 48.1696L154.523 48ZM150.281 48L149.296 47.8287L149.092 49H150.281V48ZM156.539 12V11H155.698L155.554 11.8287L156.539 12ZM160.781 12L161.766 12.1717L161.971 11H160.781V12ZM157.031 33.5156L156.046 33.3439L155.499 36.4821L157.742 34.2196L157.031 33.5156ZM159.633 30.8906L158.957 30.1535L158.939 30.1697L158.923 30.1867L159.633 30.8906ZM168.633 22.6406V21.6406H168.244L167.957 21.9035L168.633 22.6406ZM174.141 22.6406L174.821 23.3738L176.689 21.6406H174.141V22.6406ZM162.492 33.4453L161.812 32.7122L161.239 33.2434L161.616 33.9277L162.492 33.4453ZM170.508 48V49H172.2L171.384 47.5176L170.508 48ZM165.867 48L164.994 48.4867L165.28 49H165.867V48ZM158.685 35.5593L155.357 38.5359L156.69 40.0266L160.018 37.0501L158.685 35.5593ZM155.038 39.1117L153.538 47.8304L155.509 48.1696L157.009 39.4508L155.038 39.1117ZM154.523 47H150.281V49H154.523V47ZM151.266 48.1713L157.524 12.1713L155.554 11.8287L149.296 47.8287L151.266 48.1713ZM156.539 13H160.781V11H156.539V13ZM159.796 11.8283L156.046 33.3439L158.016 33.6873L161.766 12.1717L159.796 11.8283ZM157.742 34.2196L160.343 31.5946L158.923 30.1867L156.321 32.8117L157.742 34.2196ZM160.309 31.6278L169.309 23.3778L167.957 21.9035L158.957 30.1535L160.309 31.6278ZM168.633 23.6406H174.141V21.6406H168.633V23.6406ZM173.461 21.9075L161.812 32.7122L163.172 34.1785L174.821 23.3738L173.461 21.9075ZM161.616 33.9277L169.632 48.4824L171.384 47.5176L163.368 32.9629L161.616 33.9277ZM170.508 47H165.867V49H170.508V47ZM166.741 47.5133L160.225 35.818L158.478 36.7914L164.994 48.4867L166.741 47.5133Z" fill="#1D3E6E"/>
<path fill-rule="evenodd" clip-rule="evenodd" d="M178.864 59.0263L172.849 52.9564L185.696 40.5393L175.018 29.2643L192.719 12.9683L186.081 5.8643L207.888 3.94182L204.557 25.9386L198.37 19.1229L186.997 29.6255L197.674 40.9005L178.864 59.0263Z" fill="#8DB046"/>
</svg>
